# xmcd CD database file
#
# Track frame offsets:
#	150
#	7074
#	11565
#	17838
#	28104
#	34356
#	42702
#	49854
#	57915
#	63360
#	71691
#	78354
#	83664
#	89781
#	97002
#	99126
#	106050
#	110541
#	116814
#	127080
#	133332
#	141678
#	148830
#	156891
#	162336
#	170667
#	177330
#	182640
#	188757
#
# Disc length: 2608 seconds
#
# Revision: 0
# Processed by: cddbd v1.5.2PL0 Copyright (c) Steve Scherf et al.
# Submitted via: CDex 1.70beta2
#
DISCID=ae0a2e1d
DTITLE=Colin Cowles - Jazzin¥ it up
DYEAR=2003
DGENRE=Jazz
TTITLE0=Bach a Jazz -Jazz Waltz
TTITLE1=The Saints - march
TTITLE2=Blue Rock - 50¥s rock/rock
TTITLE3=The Ballard of Beethoven - Ballard 16 Beet - Soul
TTITLE4=Twinkle Twinkle little Bat - Swing
TTITLE5=Blue Major nor Minor - Swing
TTITLE6=A mozarten mambo - mambo - latin
TTITLE7=Gospel song - 6/8 Gospel
TTITLE8=Bounds - 30¥s style - dixiland
TTITLE9=A brahms Bossa nova - Bossa nova
TTITLE10=Plaisir d¡mour - Jazz Waltz
TTITLE11=Dixiland detour - Dixiland march
TTITLE12=Jazzi Joshua at Jericho - Swing
TTITLE13=Frankkie and Johnny - Swing
TTITLE14=Tuning Note A
TTITLE15=Bach a Jazz -Jazz Waltz (ohne Solostimme)
TTITLE16=The Saints - march (ohne Solostimme)
TTITLE17=Blue Rock - 50¥s rock/rock (ohne Solostimme)
TTITLE18=The Ballard of Beethoven - Ballard 16 Beet - Soul (ohne Solostimme)
TTITLE19=Twinkle Twinkle little Bat - Swing (ohne Solostimme)
TTITLE20=Blue Major nor Minor - Swing (ohne Solostimme)
TTITLE21=A mozarten mambo - mambo - latin (ohne Solostimme)
TTITLE22=Gospel song - 6/8 Gospel (ohne Solostimme)
TTITLE23=Bounds - 30¥s style - dixiland (ohne Solostimme)
TTITLE24=A brahms Bossa nova - Bossa nova (ohne Solostimme)
TTITLE25=Plaisir d¡mour - Jazz Waltz (ohne Solostimme)
TTITLE26=Dixiland detour - Dixiland march (ohne Solostimme)
TTITLE27=Jazzi Joshua at Jericho - Swing (ohne Solostimme)
TTITLE28=Frankkie and Johnny - Swingn (ohne Solostimme)
EXTD=YEAR: 2003
EXTT0=
EXTT1=
EXTT2=
EXTT3=
EXTT4=
EXTT5=
EXTT6=
EXTT7=
EXTT8=
EXTT9=
EXTT10=
EXTT11=
EXTT12=
EXTT13=
EXTT14=
EXTT15=
EXTT16=
EXTT17=
EXTT18=
EXTT19=
EXTT20=
EXTT21=
EXTT22=
EXTT23=
EXTT24=
EXTT25=
EXTT26=
EXTT27=
EXTT28=
PLAYORDER=
